<svg xmlns="http://www.w3.org/2000/svg" xmlns:xlink="http://www.w3.org/1999/xlink" width="168" height="166" viewBox="0 0 168 166">
  <defs>
    <clipPath id="clip-path">
      <rect id="Rectangle_14" data-name="Rectangle 14" width="168" height="166" transform="translate(0 0.343)" fill="#6e06fc"/>
    </clipPath>
  </defs>
  <g id="Marketinglogo" transform="translate(0 -0.343)" clip-path="url(#clip-path)">
    <path id="Path_7" data-name="Path 7" d="M83.833,0A83.327,83.327,0,0,0,18.454,135.513a21.683,21.683,0,0,1,5.023-23.005,22.031,22.031,0,0,1,25.654-3.887A42.592,42.592,0,0,1,55.85,50.915a43.26,43.26,0,0,1,58.423,2.142,20.506,20.506,0,0,0,28.868,0,20.191,20.191,0,0,0,0-28.684A83.887,83.887,0,0,0,83.833,0Zm65.393,31.107a21.685,21.685,0,0,1-5.03,23,22.029,22.029,0,0,1-25.654,3.887,42.594,42.594,0,0,1-4.262,55.556,20.195,20.195,0,0,0,0,28.68,20.5,20.5,0,0,0,28.865,0A83.061,83.061,0,0,0,149.22,31.107Zm-110.274,76.5a20.466,20.466,0,0,0-14.439,5.937,20.251,20.251,0,0,0,6.625,33.091,20.512,20.512,0,0,0,22.254-4.4,20.256,20.256,0,0,0-6.618-33.1,20.515,20.515,0,0,0-7.814-1.543Zm70.354,10.184a43.314,43.314,0,0,1-50.952,0,21.694,21.694,0,0,1-3.912,25.491,22.009,22.009,0,0,1-23.153,4.984,84.414,84.414,0,0,0,105.076,0,22.012,22.012,0,0,1-23.146-4.984,21.679,21.679,0,0,1-3.912-25.491Z" transform="translate(0.004 0)" fill="#6e06fc"/>
  </g>
</svg>
