<svg xmlns="http://www.w3.org/2000/svg" width="161.444" height="158.457" viewBox="0 0 161.444 158.457">
  <path id="Landscapelogo" d="M35.988,2A62.761,62.761,0,0,1,66.744,9.981a57.291,57.291,0,0,1,21.9,21.659,54.2,54.2,0,0,1,19.694-15.976A58.4,58.4,0,0,1,133.7,9.923h29.74V29.73a49.8,49.8,0,0,1-16.177,36.415,57.327,57.327,0,0,1-39.054,15.084H95.468v7.923h42.485v55.46a15.322,15.322,0,0,1-4.978,11.2,17.639,17.639,0,0,1-12.017,4.641H52.982a17.638,17.638,0,0,1-12.017-4.641,15.323,15.323,0,0,1-4.977-11.2V89.151H78.474V73.306H61.479A61.737,61.737,0,0,1,19.421,57.062,53.629,53.629,0,0,1,2,17.846V2Zm84.971,103H52.982v39.614h67.976ZM146.45,25.769H133.7a39.688,39.688,0,0,0-27.038,10.442,34.476,34.476,0,0,0-11.2,25.21v3.961h12.746a40.659,40.659,0,0,0,14.633-2.714,38.542,38.542,0,0,0,12.4-7.729,35.613,35.613,0,0,0,8.289-11.567,33.579,33.579,0,0,0,2.91-13.644ZM35.988,17.846H18.994A38.306,38.306,0,0,0,31.438,45.857a44.1,44.1,0,0,0,30.042,11.6H78.474A38.306,38.306,0,0,0,66.03,29.448a44.1,44.1,0,0,0-30.042-11.6Z" transform="translate(-2 -2)" fill="#6e06fc"/>
</svg>
